PathFileType	4	(X/Y/Z)	s09c0203.trc
DataRate	CameraRate	NumFrames	NumMarkers	Units	OrigDataRate	OrigDataStartFrame	OrigNumFrames
200	200	4	50	mm	200	1250	2000
Frame#	Time	racr			lacr			c7			jug			rlel			rdr			llel			ldr			s2			lic			ric			lasi			rasi			rpsi			lpsi			rgt			lgt			rth1			rth2			rth3			rth4			rlfc			rmfc			rsh1			rsh2			rsh3			rsh4			rlmal			rmmal			rcal			rtoe			rmt5			lth1			lth2			lth4			lth3			llfc			lmfc			llmal			lmmal			lcal			lmt5			lsh1			lsh2			lsh3			lsh4			ltoe			SBIKE			LBIKE			RBIKE			
		X1	Y1	Z1	X2	Y2	Z2	X3	Y3	Z3	X4	Y4	Z4	X5	Y5	Z5	X6	Y6	Z6	X7	Y7	Z7	X8	Y8	Z8	X9	Y9	Z9	X10	Y10	Z10	X11	Y11	Z11	X12	Y12	Z12	X13	Y13	Z13	X14	Y14	Z14	X15	Y15	Z15	X16	Y16	Z16	X17	Y17	Z17	X18	Y18	Z18	X19	Y19	Z19	X20	Y20	Z20	X21	Y21	Z21	X22	Y22	Z22	X23	Y23	Z23	X24	Y24	Z24	X25	Y25	Z25	X26	Y26	Z26	X27	Y27	Z27	X28	Y28	Z28	X29	Y29	Z29	X30	Y30	Z30	X31	Y31	Z31	X32	Y32	Z32	X33	Y33	Z33	X34	Y34	Z34	X35	Y35	Z35	X36	Y36	Z36	X37	Y37	Z37	X38	Y38	Z38	X39	Y39	Z39	X40	Y40	Z40	X41	Y41	Z41	X42	Y42	Z42	X43	Y43	Z43	X44	Y44	Z44	X45	Y45	Z45	X46	Y46	Z46	X47	Y47	Z47	X48	Y48	Z48	X49	Y49	Z49	X50	Y50	Z50	
1250	6.2500	437.583268	1228.737287	-18.787672	540.182613	1214.473006	-360.413425	475.431480	1306.839368	-183.310013	458.044067	1171.445278	-200.633146	459.829642	989.985568	66.218848	675.217861	908.119278	-37.289516	441.939657	1006.482026	-532.128958	650.833680	902.772243	-454.083502	6.624638	1111.130986	-291.983973	159.479178	1107.464547	-424.206700	125.722070	1132.903440	-123.020311	197.500043	1057.227623	-390.438944	181.735032	1091.451402	-138.534679	22.061079	1145.961188	-232.794812	40.467525	1145.662864	-342.091303	137.693657	1020.145016	-80.871275	121.128068	961.590601	-451.446722	271.815556	977.022966	-95.659561	357.337005	969.401932	-111.037511	427.204361	915.065656	-114.111749	365.785364	990.779262	-140.284337	499.432685	839.451537	-141.377451	475.972554	811.955379	-240.791399	419.304021	785.372469	-106.520022	369.396945	710.746157	-109.803714	291.331411	672.133635	-99.584530	386.811761	689.595085	-138.030831	214.505177	601.292140	-87.874693	215.137241	606.567794	-165.465581	129.018236	613.485763	-117.671665	334.697310	447.768497	-134.412165	262.215294	484.559621	-66.565049	188.379033	841.666008	-445.895076	244.981937	779.672039	-432.738310	276.828976	795.955998	-419.170934	263.464386	691.629129	-422.004053	294.997269	601.725734	-401.647570	292.340195	585.897497	-304.499098	236.059122	240.843204	-423.793646	247.252175	252.506982	-346.152448	169.631823	200.677151	-382.570318	343.231188	152.418021	-432.529560	271.633060	505.242574	-429.410940	282.611056	419.885599	-422.729409	248.845692	337.632544	-424.577164	306.784962	418.417542	-390.949724	428.043940	175.600492	-360.308277	-65.198837	850.407878	-243.462200	21.123957	83.378428	-442.471747	21.078159	84.050529	-44.174156	
1251	6.2550	434.927498	1229.817359	-17.049239	541.620576	1213.055453	-357.437732	474.949174	1306.778738	-181.025060	457.252825	1170.804366	-197.434016	459.126535	990.726795	67.307493	674.117695	908.074281	-37.585611	444.003934	1007.290750	-531.597885	652.251936	902.708480	-453.073417	6.782390	1111.039903	-295.051643	161.536082	1105.396349	-424.875610	124.397542	1135.201262	-124.826616	198.701395	1055.559258	-390.557465	180.577148	1093.696833	-139.295822	21.736524	1146.723651	-236.007554	41.247961	1145.497560	-345.371062	136.893683	1024.196440	-81.437838	123.048456	959.759310	-452.893974	271.309832	983.305038	-96.596784	356.985160	976.528459	-112.408539	428.579566	923.462347	-114.602563	364.644336	997.947884	-142.059386	501.973730	848.106529	-140.523503	478.270479	819.247093	-239.724701	420.995916	792.417637	-106.308026	372.883970	716.638780	-109.098649	295.623303	676.362557	-99.197670	391.047358	695.927811	-136.701982	220.154697	603.869723	-87.634074	220.668500	609.058600	-165.007619	134.173868	613.356697	-117.160381	345.268698	454.562131	-134.520552	271.687644	488.841639	-66.312567	188.748927	841.039318	-446.071740	244.492960	778.489301	-432.342079	276.322065	794.426977	-418.154736	262.155818	690.284577	-422.060822	291.842720	600.145074	-400.791187	289.049021	584.321720	-303.405320	228.463107	240.429399	-423.438281	239.732641	251.547076	-346.010207	161.302958	201.904562	-382.210268	333.574938	149.410706	-432.373896	267.727515	504.328572	-428.580583	277.477200	418.746272	-421.864966	242.598158	337.080462	-424.031639	301.517720	416.675297	-389.695538	419.000996	170.148267	-360.137202	-65.247744	850.419247	-243.455073	21.108198	83.386643	-442.479310	21.076146	84.056930	-44.160992	
1252	6.2600	432.438126	1230.901041	-15.597450	542.925516	1211.783185	-354.874993	474.476688	1306.334861	-179.771522	457.030643	1170.367086	-194.964926	458.379609	991.477638	68.304904	673.106748	908.036570	-37.845675	446.218687	1007.866493	-530.886466	653.785969	902.687424	-451.885928	12.606014	1106.535633	-299.006993	163.364984	1103.437574	-425.365506	123.163511	1137.646719	-126.504978	199.688816	1054.104236	-390.585800	179.355929	1095.841075	-139.948264	21.236965	1148.040234	-238.832543	41.674909	1145.684609	-348.045444	136.250100	1028.357710	-81.853289	124.842024	958.044638	-454.191031	270.590320	989.375225	-97.416028	356.230158	983.366625	-113.397733	428.554706	931.245792	-114.893618	363.526067	1004.404844	-143.488236	503.728037	856.275363	-139.753809	480.426534	826.145704	-238.832226	422.363267	798.604134	-105.792207	376.067606	721.443181	-108.272612	299.655821	679.715626	-98.467625	394.882672	701.109500	-135.652191	225.771717	605.348747	-87.229983	225.932553	610.608036	-164.560321	139.475772	612.260121	-116.166219	355.881722	461.072804	-134.656008	281.162111	492.289875	-66.090848	189.075243	840.786645	-446.092577	244.250856	777.847066	-432.035508	276.032000	793.517887	-417.271972	261.144476	689.461019	-421.511109	289.364852	599.367179	-399.736820	286.942926	583.559232	-302.049853	220.983024	240.839313	-423.074769	232.247042	251.199827	-345.827532	153.036924	204.002429	-381.842535	323.811377	147.161269	-432.189722	264.461436	504.005351	-427.595437	272.762768	418.328809	-420.736806	236.772606	337.187648	-423.407951	296.782666	415.811891	-388.588724	409.807573	165.167038	-359.891957	-65.295844	850.411645	-243.443172	21.106357	83.393160	-442.488298	21.053632	84.069074	-44.168135	
1253	6.2650	430.480916	1231.877903	-14.465663	544.169442	1210.591479	-352.367030	474.100394	1306.049133	-178.277941	456.809851	1170.037731	-192.700553	457.563233	992.317533	69.118245	672.236865	908.056280	-38.137744	448.281580	1008.336419	-530.325373	655.350952	902.728281	-450.872918	5.204430	1112.827007	-300.856621	164.934717	1101.766915	-425.736599	122.071684	1140.158277	-128.104422	200.575871	1052.853679	-390.509970	178.158432	1097.883173	-140.588208	22.308389	1148.508724	-242.057338	40.973738	1146.752775	-350.080809	135.681660	1032.690656	-82.090902	126.270805	956.349079	-454.746293	269.641631	995.019949	-98.018385	355.290172	989.562452	-114.098523	428.108222	938.457137	-114.796795	362.264790	1010.240754	-144.502371	503.721046	863.781371	-138.713438	482.199679	832.305108	-237.838346	423.456084	803.388326	-105.522928	379.102542	725.402667	-107.475696	303.723891	681.685212	-97.974745	398.503507	705.334167	-134.677903	231.543410	605.777295	-86.772652	231.143034	611.322789	-163.913907	144.515864	609.827720	-115.809012	366.363217	466.944256	-134.791072	290.720828	495.141990	-65.759708	189.445481	841.060916	-445.969964	244.305689	777.690246	-431.569821	275.962309	793.217213	-416.329039	260.614156	689.160258	-420.737478	287.659705	599.141914	-398.490325	285.826923	583.437290	-300.570098	213.575866	241.939685	-422.600308	224.833813	251.466799	-345.601664	144.769786	206.893349	-381.299635	313.857579	145.486878	-431.951866	261.943016	504.222750	-426.398979	268.565888	418.413512	-419.463464	231.219363	337.905818	-422.629996	292.535952	415.416786	-387.398977	400.408938	160.791322	-359.700070	-65.327138	850.431927	-243.409081	21.101581	83.436604	-442.487546	21.028755	84.096000	-44.193968	
